<svg width="279" height="273" viewBox="0 0 279 273" fill="none" xmlns="http://www.w3.org/2000/svg">
<path d="M96.6951 78.4851C101.562 77.4421 114.368 75.7328 120.162 75.0085L123.638 72.8357V48.4999L134.503 49.8036L142.759 46.7616L151.451 48.4999L159.273 43.285L161.446 68.49C171.006 67.476 191.257 65.1004 195.777 63.7098C200.296 62.3191 208.959 59.0744 212.725 57.6258L222.72 126.288C224.313 128.895 227.5 136.283 227.5 144.974C227.5 155.838 226.631 196.253 226.631 198.426C226.631 200.164 221.996 203.206 219.678 204.51C218.954 206.393 217.244 210.42 216.201 211.463C214.898 212.767 95.3914 229.715 89.742 229.715C84.0926 229.715 74.0976 229.28 72.7939 227.108C71.4902 224.935 69.3173 175.394 69.3173 173.656C69.3173 171.917 63.6679 119.769 61.4951 109.339C59.7568 100.996 54.1074 93.4053 51.5 90.653L61.4951 84.1345L60.1914 80.6579C63.5231 80.8028 71.5771 81.0056 77.1395 80.6579C84.0926 80.2234 90.6112 79.7888 96.6951 78.4851Z" fill="white"/>
<path d="M80.5919 223.135C81.022 223.135 81.4344 222.964 81.7385 222.661C82.0426 222.357 82.2134 221.946 82.2134 221.517C82.2134 221.088 82.0426 220.676 81.7385 220.373C81.4344 220.069 81.022 219.899 80.5919 219.899C80.1619 219.899 79.7494 220.069 79.4453 220.373C79.1412 220.676 78.9704 221.088 78.9704 221.517C78.9704 221.946 79.1412 222.357 79.4453 222.661C79.7494 222.964 80.1619 223.135 80.5919 223.135Z" fill="#151718"/>
<path d="M126.669 58.5783C127.966 70.2787 128.97 81.9878 129.679 93.7054C129.795 95.7634 133.038 95.7893 132.922 93.7054C132.221 81.9878 131.218 70.2787 129.912 58.5783C129.692 56.5334 126.449 56.5075 126.669 58.5783Z" fill="#151718"/>
<path d="M133.038 95.4139C134.17 94.0438 135.387 92.7468 136.684 91.531C136.986 91.2258 137.155 90.8143 137.155 90.3856C137.155 89.9568 136.986 89.5453 136.684 89.2401C136.375 88.945 135.963 88.7803 135.536 88.7803C135.108 88.7803 134.697 88.945 134.388 89.2401C133.095 90.4561 131.882 91.753 130.755 93.123C130.45 93.4225 130.266 93.823 130.237 94.249C130.243 94.6763 130.415 95.0843 130.716 95.388C131.019 95.6909 131.429 95.8628 131.858 95.8669C132.071 95.8663 132.281 95.8237 132.477 95.7415C132.673 95.6593 132.85 95.5391 133 95.388L133.038 95.4139Z" fill="#151718"/>
<path d="M135.322 91.6605C135.892 91.7899 136.463 91.9452 137.021 92.1264L137.747 92.3853L138.163 92.5406H138.072L138.279 92.6312C139.316 93.0721 140.307 93.614 141.237 94.249C141.612 94.4593 142.054 94.516 142.47 94.4074C142.887 94.2987 143.244 94.0332 143.468 93.6666C143.672 93.2929 143.725 92.8558 143.616 92.4445C143.508 92.0332 143.246 91.6787 142.884 91.4534C140.866 90.0369 138.587 89.0338 136.178 88.5024C135.763 88.3985 135.325 88.4592 134.955 88.6716C134.584 88.8841 134.311 89.2318 134.193 89.6414C134.134 89.8479 134.116 90.064 134.141 90.2774C134.165 90.4909 134.232 90.6973 134.337 90.8849C134.442 91.0725 134.583 91.2376 134.752 91.3707C134.921 91.5038 135.114 91.6023 135.322 91.6605Z" fill="#151718"/>
<path d="M143.702 93.6537C144.157 92.8812 144.659 92.1377 145.206 91.4275L144.96 91.7511C145.465 91.1 146.006 90.4778 146.581 89.8873C146.745 89.7401 146.878 89.5612 146.97 89.3613C147.062 89.1614 147.113 88.9448 147.118 88.7248C147.124 88.5048 147.084 88.286 147.002 88.0818C146.92 87.8775 146.797 87.6922 146.641 87.537C146.484 87.3818 146.298 87.2601 146.093 87.1793C145.887 87.0985 145.668 87.0603 145.447 87.0671C145.227 87.0739 145.01 87.1255 144.81 87.2187C144.611 87.3119 144.432 87.4448 144.285 87.6093C142.978 88.9348 141.84 90.4173 140.9 92.0229C140.686 92.3963 140.627 92.8387 140.736 93.2549C140.845 93.6711 141.113 94.028 141.483 94.249C141.857 94.4553 142.296 94.5099 142.71 94.4014C143.123 94.2929 143.478 94.0298 143.702 93.6666V93.6537Z" fill="#151718"/>
<path d="M145.622 90.0685C145.98 90.0427 146.34 90.0427 146.698 90.0685H146.27C146.832 90.1494 147.381 90.3017 147.905 90.5215L147.515 90.3532C148.01 90.5743 148.48 90.8477 148.916 91.1686L148.579 90.9098C148.845 91.117 149.096 91.3419 149.332 91.5828C149.635 91.8831 150.046 92.0517 150.473 92.0517C150.901 92.0517 151.311 91.8831 151.615 91.5828C151.913 91.2782 152.079 90.8694 152.079 90.4438C152.079 90.0182 151.913 89.6095 151.615 89.3048C150.842 88.5003 149.911 87.865 148.879 87.4394C147.847 87.0138 146.738 86.8072 145.622 86.8327C145.191 86.8327 144.779 87.0032 144.475 87.3066C144.171 87.61 144 88.0215 144 88.4506C144 88.8797 144.171 89.2912 144.475 89.5946C144.779 89.898 145.191 90.0685 145.622 90.0685Z" fill="#151718"/>
<path d="M152.289 91.2463C153.442 90.4245 154.41 89.3707 155.13 88.1529C155.239 87.9698 155.311 87.7669 155.34 87.5559C155.37 87.345 155.357 87.1303 155.303 86.9243C155.249 86.7182 155.154 86.5251 155.024 86.3561C154.894 86.187 154.732 86.0455 154.546 85.9397C154.353 85.8247 154.138 85.7515 153.914 85.7247C153.691 85.6979 153.464 85.7183 153.249 85.7844C152.855 85.8934 152.514 86.1418 152.289 86.4833C152.107 86.7875 151.908 87.0813 151.693 87.3634L151.952 87.0269C151.5 87.6073 150.977 88.1291 150.395 88.58L150.72 88.3341L150.616 88.4118C150.433 88.5115 150.278 88.6536 150.162 88.826C150.024 88.9817 149.926 89.1682 149.876 89.3696C149.815 89.5849 149.798 89.8101 149.825 90.0322C149.851 90.2544 149.922 90.469 150.032 90.6639C150.253 91.0225 150.6 91.2857 151.005 91.4016L151.433 91.4663C151.72 91.4671 152.002 91.3911 152.25 91.2463H152.289Z" fill="#151718"/>
<path d="M154.326 88.9166H153.898C154.684 89.018 155.452 89.2271 156.181 89.5378L155.792 89.3696C156.135 89.5126 156.468 89.6769 156.791 89.8614C156.984 89.9763 157.199 90.0506 157.422 90.0795C157.645 90.1084 157.872 90.0915 158.088 90.0297C158.491 89.9167 158.835 89.6523 159.048 89.2919C159.26 88.9192 159.318 88.4791 159.212 88.064C159.106 87.6489 158.842 87.2911 158.477 87.0657C157.093 86.2905 155.558 85.8225 153.976 85.6938C153.759 85.6869 153.543 85.7231 153.34 85.8004C153.138 85.8776 152.952 85.9943 152.795 86.1437C152.638 86.2931 152.513 86.4721 152.426 86.6704C152.339 86.8687 152.293 87.0823 152.289 87.2987C152.288 87.5129 152.33 87.7253 152.412 87.9231C152.495 88.1209 152.616 88.3003 152.769 88.4506C153.083 88.735 153.487 88.9 153.911 88.9166H154.326Z" fill="#151718"/>
<path d="M159.424 88.1788C156.829 76.7373 156.959 64.9722 157.089 53.3106C157.089 52.8815 156.918 52.47 156.614 52.1666C156.31 51.8632 155.897 51.6927 155.467 51.6927C155.037 51.6927 154.625 51.8632 154.321 52.1666C154.017 52.47 153.846 52.8815 153.846 53.3106C153.703 65.2698 153.651 77.3197 156.298 89.046C156.765 91.078 159.891 90.2108 159.424 88.1788Z" fill="#151718"/>
<path d="M153.937 52.3269L150.045 57.7759C149.931 57.9693 149.859 58.1841 149.832 58.4068C149.805 58.6295 149.825 58.8554 149.889 59.0702C150.003 59.4728 150.268 59.816 150.629 60.028C151 60.2386 151.439 60.297 151.853 60.1908C152.267 60.0845 152.624 59.8219 152.847 59.4585L156.739 53.9966C156.852 53.8032 156.926 53.5889 156.955 53.3665C156.984 53.1442 156.968 52.9182 156.907 52.7023C156.794 52.3036 156.535 51.9618 156.181 51.7445C155.806 51.5414 155.368 51.4886 154.956 51.5968C154.544 51.7051 154.188 51.9662 153.963 52.3269H153.937Z" fill="#151718"/>
<path d="M151.939 57.3617L145.868 53.7636C145.495 53.554 145.055 53.4976 144.641 53.6064C144.227 53.7151 143.871 53.9804 143.65 54.346C143.44 54.7183 143.383 55.1575 143.492 55.5706C143.601 55.9838 143.867 56.3384 144.234 56.5593L150.304 60.1574C150.488 60.2645 150.692 60.3343 150.903 60.363C151.114 60.3917 151.329 60.3786 151.535 60.3245C151.74 60.2705 151.934 60.1764 152.103 60.0478C152.273 59.9192 152.415 59.7585 152.523 59.575C152.63 59.3914 152.7 59.1885 152.729 58.978C152.758 58.7674 152.744 58.5532 152.69 58.3477C152.636 58.1422 152.542 57.9493 152.413 57.7802C152.284 57.611 152.123 57.4688 151.939 57.3617Z" fill="#151718"/>
<path d="M143.209 54.2813C142.77 54.8063 142.379 55.3694 142.041 55.9639C141.709 56.5591 141.431 57.1828 141.211 57.8277C141.149 58.0435 141.132 58.2696 141.161 58.4922C141.19 58.7148 141.264 58.9291 141.38 59.122C141.592 59.4824 141.936 59.7468 142.34 59.8597C142.556 59.9215 142.783 59.9385 143.006 59.9095C143.229 59.8806 143.444 59.8064 143.637 59.6914C143.989 59.4693 144.251 59.13 144.376 58.7337C144.443 58.5267 144.521 58.3236 144.61 58.1253L144.441 58.5136C144.752 57.789 145.153 57.1063 145.634 56.4816L145.375 56.7146L145.518 56.5204C145.676 56.3826 145.793 56.2033 145.855 56.0027C145.953 55.8245 146.003 55.6236 145.998 55.4203C145.992 54.9891 145.82 54.5768 145.518 54.2684C145.214 53.9691 144.803 53.8016 144.376 53.8024C144.164 53.7976 143.953 53.8365 143.757 53.9167C143.56 53.9969 143.383 54.1166 143.235 54.2684L143.209 54.2813Z" fill="#151718"/>
<path d="M143.559 57.1546L139.901 53.9189C139.593 53.6228 139.186 53.452 138.759 53.44C138.327 53.4461 137.914 53.6176 137.605 53.9189C137.306 54.2257 137.139 54.6366 137.139 55.0643C137.139 55.4921 137.306 55.903 137.605 56.2098L141.263 59.4455C141.577 59.7378 141.988 59.9038 142.417 59.9115C142.844 59.9095 143.253 59.7425 143.559 59.4455C143.863 59.1386 144.035 58.7253 144.039 58.2936C144.035 57.8658 143.862 57.4568 143.559 57.1546Z" fill="#151718"/>
<path d="M137.384 53.8542C135.526 54.8198 133.817 56.0492 132.312 57.5041C132.037 57.8131 131.89 58.2155 131.903 58.6288C131.916 59.042 132.087 59.4347 132.381 59.7262C132.674 60.0177 133.069 60.186 133.483 60.1963C133.897 60.2067 134.3 60.0585 134.608 59.782C135.151 59.2634 135.723 58.7752 136.32 58.3195L135.983 58.5654C136.94 57.8623 137.955 57.2431 139.019 56.7146C139.388 56.496 139.656 56.1414 139.765 55.7273C139.874 55.3132 139.816 54.8728 139.602 54.5013C139.379 54.1382 139.023 53.875 138.61 53.7665C138.197 53.6581 137.758 53.7126 137.384 53.9189V53.8542Z" fill="#151718"/>
<path d="M134.53 57.6853C133.07 55.9957 131.375 54.5226 129.497 53.3106C129.125 53.0977 128.683 53.0394 128.268 53.1484C127.853 53.2573 127.498 53.5248 127.279 53.893C127.069 54.2653 127.012 54.7045 127.121 55.1176C127.23 55.5308 127.496 55.8853 127.863 56.1062C128.373 56.4428 128.866 56.7922 129.341 57.1546L129.017 56.9087C130.191 57.8193 131.269 58.8472 132.234 59.9762C132.463 60.1987 132.751 60.3496 133.065 60.4102C133.378 60.4709 133.702 60.4386 133.998 60.3175C134.293 60.1964 134.546 59.9917 134.726 59.7286C134.906 59.4655 135.005 59.1557 135.01 58.8372C134.992 58.4087 134.822 58.0005 134.53 57.6853Z" fill="#151718"/>
<path d="M127.058 54.7343C126.963 56.6155 126.998 58.501 127.162 60.3774C127.176 60.8045 127.341 61.2129 127.629 61.5293C127.94 61.8271 128.353 61.994 128.784 61.9953C129.213 61.9919 129.623 61.8204 129.926 61.5177C130.23 61.215 130.402 60.8055 130.405 60.3774C130.241 58.501 130.206 56.6155 130.301 54.7343C130.298 54.3063 130.126 53.8967 129.823 53.594C129.519 53.2914 129.109 53.1198 128.68 53.1164C128.253 53.1263 127.846 53.2999 127.544 53.6012C127.242 53.9025 127.068 54.3083 127.058 54.7343Z" fill="#151718"/>
<path d="M129.614 76.3749C109.873 83.0939 89.0771 86.1983 68.2294 85.5385C66.1409 85.4737 66.1409 88.7095 68.2294 88.7742C89.3753 89.4415 110.469 86.2978 130.496 79.4941C132.455 78.8211 131.612 75.7018 129.627 76.3749H129.614Z" fill="#151718"/>
<path d="M66.4911 87.5705C69.9677 104.888 71.0963 122.516 72.4583 140.132C73.8204 157.747 75.1306 175.311 75.8311 192.939C76.2073 202.452 76.2981 212.068 78.9185 221.297C78.9756 221.502 79.0725 221.693 79.2038 221.861C79.3351 222.028 79.4981 222.168 79.6836 222.273C79.8691 222.377 80.0735 222.444 80.2849 222.47C80.4964 222.496 80.7109 222.48 80.9162 222.423C81.1215 222.366 81.3135 222.269 81.4813 222.138C81.6491 222.007 81.7894 221.845 81.8942 221.659C81.999 221.474 82.0663 221.27 82.0921 221.059C82.1179 220.848 82.1019 220.634 82.0448 220.43C79.7098 212.211 79.4504 203.604 79.165 195.178C78.8277 186.265 78.3607 177.356 77.764 168.451C76.6354 150.952 75.3771 133.505 73.7166 115.993C72.8581 106.17 71.4898 96.398 69.6174 86.7163C69.2023 84.6713 66.076 85.5385 66.4911 87.5705Z" fill="#151718"/>
<path d="M80.1898 222.928C88.3752 224.222 96.5218 222.928 104.5 221.051C112.478 219.174 120.533 216.844 128.472 214.502C144.35 209.816 160.021 204.531 175.484 198.647C184.132 195.359 192.693 191.908 201.168 188.292C203.075 187.477 201.428 184.681 199.534 185.497C170.013 198.171 139.582 208.619 108.495 216.754C99.5832 219.084 90.334 221.374 81.0589 219.86C79.0093 219.524 78.1402 222.643 80.1898 222.979V222.928Z" fill="#151718"/>
<path d="M199.69 188.059C201.248 189.627 202.922 191.077 204.697 192.395C206.543 193.994 208.691 195.209 211.014 195.967C214.906 196.912 217.669 194.324 218.798 190.894C219.34 189.055 219.683 187.163 219.822 185.251C220.151 182.541 220.415 179.836 220.614 177.136C220.977 172.14 221.154 167.139 221.146 162.135C221.146 141.62 218.305 121.248 215.049 101.031C213.22 89.6025 211.157 78.1869 209.471 66.7324C209.159 64.6874 206.033 65.5546 206.344 67.5996C212.026 104.836 220.614 142.371 217.111 180.203C216.878 182.792 216.683 185.38 216.203 187.891C215.918 189.418 215.49 191.347 214.193 192.356C212.169 193.935 209.328 191.709 207.706 190.544C205.653 189.111 203.734 187.495 201.973 185.717C201.663 185.442 201.26 185.296 200.846 185.309C200.431 185.321 200.038 185.492 199.746 185.785C199.453 186.078 199.285 186.472 199.274 186.885C199.264 187.299 199.413 187.7 199.69 188.008V188.059Z" fill="#151718"/>
<path d="M207.564 64.9592C199.78 68.5573 191.543 69.5151 183.15 70.3435L157.309 72.9321C155.247 73.1391 155.221 76.3749 157.309 76.1678L184.421 73.5015C193.009 72.6602 201.285 71.4695 209.198 67.8067C211.092 66.9136 209.445 64.1309 207.564 65.011V64.9592Z" fill="#151718"/>
<path d="M81.3184 223.303C100.336 224.753 119.197 221.09 137.773 217.504C156.894 213.829 176.119 210.917 195.448 208.587C202.492 207.746 212.662 207.616 215.619 199.682C215.683 199.442 215.69 199.19 215.641 198.946C215.592 198.703 215.488 198.474 215.336 198.276C215.185 198.079 214.99 197.919 214.767 197.808C214.544 197.697 214.299 197.639 214.05 197.637C187.095 200.704 160.356 205.429 133.985 211.784C126.539 213.587 119.124 215.52 111.738 217.582C111.324 217.697 110.972 217.972 110.76 218.346C110.548 218.719 110.494 219.162 110.61 219.575C110.725 219.989 111 220.34 111.375 220.551C111.749 220.762 112.193 220.816 112.607 220.701C138.495 213.48 164.805 207.86 191.387 203.876C198.929 202.737 206.483 201.74 214.05 200.886L212.493 198.841C211.378 201.831 208.199 203.164 205.32 203.914C201.429 204.727 197.491 205.289 193.528 205.597C184.447 206.697 175.445 207.901 166.416 209.26C148.255 212.017 130.301 216.21 112.101 218.747C101.916 220.277 91.5962 220.711 81.3184 220.041C79.2428 219.886 79.2428 223.122 81.3184 223.277V223.303Z" fill="#151718"/>
<path d="M140.394 215.667C163.277 208.548 187.846 210.179 210.664 202.853C212.312 202.322 212.143 199.462 210.236 199.669C196.823 201.093 183.487 203.056 170.23 205.558C168.18 205.946 169.049 209.066 171.086 208.69C184.058 206.24 197.108 204.32 210.236 202.931L209.808 199.76C186.977 207.085 162.408 205.455 139.538 212.573C137.553 213.195 138.396 216.327 140.394 215.692V215.667Z" fill="#151718"/>
<path d="M197.575 203.423C203.675 203.655 209.751 202.546 215.373 200.174C217.669 199.364 219.574 197.718 220.705 195.566C221.833 192.978 221.639 189.871 221.807 187.153C222.599 174.638 223.221 162.044 222.119 149.515C221.539 142.513 220.306 135.58 218.434 128.807C218.31 128.405 218.035 128.067 217.665 127.865C217.296 127.663 216.863 127.612 216.457 127.723C216.05 127.834 215.703 128.098 215.489 128.46C215.275 128.822 215.21 129.252 215.308 129.661C218.228 140.733 219.629 152.149 219.472 163.597C219.472 169.331 219.265 175.052 218.953 180.772C218.798 183.633 218.616 186.493 218.434 189.341C218.266 191.929 218.434 194.66 215.944 196.291C213.288 197.846 210.368 198.899 207.33 199.397C204.126 200.078 200.849 200.361 197.575 200.239C195.487 200.161 195.5 203.397 197.575 203.474V203.423Z" fill="#151718"/>
<path d="M68.1516 87.9847C77.8029 90.3662 87.8434 87.7776 97.3909 86.0432L128.07 80.5295C130.12 80.1542 129.251 77.035 127.214 77.4103L97.806 82.691C88.492 84.3736 78.4515 87.1822 69.0337 84.8654C67.01 84.3736 66.1409 87.454 68.1645 87.9847H68.1516Z" fill="#151718"/>
<path d="M66.3484 86.4833C68.5797 108.685 70.9536 130.873 73.4702 153.049C73.7037 155.094 76.9467 155.12 76.7132 153.049C74.1966 130.916 71.8227 108.728 69.5915 86.4833C69.3839 84.4254 66.1409 84.3995 66.3484 86.4833Z" fill="#151718"/>
<path d="M218.707 129.48L218.292 123.138C218.282 122.712 218.108 122.306 217.806 122.005C217.504 121.703 217.097 121.53 216.67 121.52C216.241 121.523 215.831 121.695 215.527 121.997C215.224 122.3 215.052 122.71 215.049 123.138L215.464 129.48C215.464 129.909 215.635 130.32 215.939 130.624C216.243 130.927 216.655 131.098 217.085 131.098C217.515 131.098 217.928 130.927 218.232 130.624C218.536 130.32 218.707 129.909 218.707 129.48Z" fill="#151718"/>
<path d="M68.1645 89.6025L61.4839 90.5344C61.2815 90.5886 61.0921 90.6831 60.9271 90.8121C60.7622 90.9411 60.625 91.102 60.5239 91.2851C60.4065 91.477 60.3308 91.6914 60.3018 91.9144C60.2727 92.1374 60.291 92.3639 60.3553 92.5794C60.4679 92.9856 60.7326 93.3331 61.0947 93.5501C61.4959 93.7499 61.9528 93.8091 62.3919 93.7184L69.1245 92.7736C69.5363 92.6586 69.8859 92.3861 70.0973 92.0152C70.3087 91.6443 70.3647 91.2051 70.2531 90.7933C70.1398 90.3837 69.8695 90.035 69.5007 89.8226C69.1027 89.6123 68.6421 89.5526 68.2035 89.6543L68.1645 89.6025Z" fill="#151718"/>
<path d="M60.5758 93.3948C63.7021 97.2777 64.9864 102.144 65.7647 106.946C66.556 112.382 66.8025 117.896 67.3343 123.358C68.5278 135.438 70.1104 147.44 72.0822 159.365C73.1545 166.164 74.3782 172.933 75.7533 179.672C76.1684 181.717 79.2947 180.85 78.8796 178.818C76.3803 166.505 74.2961 154.119 72.627 141.659C71.8227 135.619 71.1179 129.519 70.5125 123.358C69.9677 117.779 69.6823 112.162 68.891 106.532C68.0997 100.902 66.4911 95.5433 62.8719 91.1039C61.5747 89.486 59.2786 91.7899 60.5758 93.3948Z" fill="#151718"/>
<path d="M70.4736 102.636L69.1764 96.6953C68.8132 95.0515 67.97 92.6959 65.8036 92.9548L67.4251 94.5726L67.3473 93.1877C67.3439 92.7597 67.172 92.3501 66.8686 92.0475C66.5653 91.7448 66.1548 91.5732 65.7258 91.5699C65.2965 91.573 64.8851 91.7419 64.5779 92.0411C64.2708 92.3404 64.0917 92.7467 64.0783 93.1748L64.1561 94.5597C64.1561 95.3492 64.8696 96.2811 65.7777 96.1775C66.1409 96.1775 65.9204 96.1775 65.6998 96.1128C65.4793 96.0481 65.3626 95.8798 65.622 96.1128C65.3885 95.8928 65.622 96.1128 65.622 96.1905C65.622 96.2681 65.7517 96.5399 65.622 96.2811C65.8555 97.0059 65.9852 97.7566 66.1539 98.5073L67.2435 103.49C67.3676 103.892 67.6434 104.229 68.0125 104.432C68.3817 104.634 68.8152 104.685 69.2214 104.574C69.6276 104.463 69.9745 104.199 70.1889 103.837C70.4032 103.475 70.4681 103.045 70.3698 102.636H70.4736Z" fill="#151718"/>
<path d="M202.881 189.82L184.071 198.142C178 200.834 171.968 203.72 165.715 205.908C159.629 208.124 153.288 209.572 146.841 210.218C141.068 210.761 135.049 210.464 129.847 213.402C129.628 213.528 129.441 213.703 129.301 213.913C129.161 214.123 129.071 214.362 129.038 214.613C129.005 214.863 129.031 215.118 129.113 215.356C129.195 215.595 129.331 215.812 129.51 215.99C131.08 217.284 132.805 217.284 134.699 216.896C137.293 216.469 139.888 215.913 142.353 215.278C142.558 215.221 142.75 215.125 142.918 214.994C143.085 214.863 143.226 214.7 143.331 214.515C143.435 214.33 143.503 214.126 143.528 213.915C143.554 213.704 143.538 213.49 143.481 213.285C143.424 213.08 143.327 212.889 143.196 212.721C143.065 212.554 142.901 212.414 142.716 212.309C142.53 212.205 142.326 212.138 142.115 212.112C141.903 212.086 141.689 212.102 141.483 212.159C139.771 212.586 138.033 212.987 136.295 213.324C135.283 213.531 132.675 214.476 131.767 213.699L131.443 216.288C136.749 213.298 143.351 214.01 149.202 213.272C155.528 212.496 161.742 210.98 167.713 208.755C173.836 206.464 179.751 203.669 185.719 200.989L204.567 192.615C206.474 191.761 204.827 188.978 202.933 189.82H202.881Z" fill="#151718"/>
<path d="M147.932 116.169C140.726 116.115 132.372 119.417 128.507 125.759C127.543 127.352 127.051 129.18 127.086 131.037C127.121 132.893 127.681 134.702 128.703 136.258C130.8 139.635 134.283 141.724 137.657 143.651C138.032 143.869 138.479 143.931 138.9 143.822C139.321 143.713 139.681 143.444 139.901 143.072C140.121 142.7 140.183 142.257 140.074 141.84C139.964 141.423 139.692 141.066 139.317 140.848C136.565 139.278 133.552 137.6 131.75 134.959C130.857 133.775 130.374 132.336 130.374 130.857C130.374 129.378 130.857 127.939 131.75 126.755C135.288 121.841 142.036 119.373 147.932 119.417C148.367 119.417 148.783 119.245 149.091 118.941C149.398 118.637 149.57 118.224 149.57 117.793C149.57 117.362 149.398 116.949 149.091 116.645C148.783 116.34 148.367 116.169 147.932 116.169Z" fill="#151718"/>
<path d="M137.581 141.681C127.572 150.72 119.416 161.587 113.558 173.687C112.652 175.559 115.469 177.205 116.386 175.321C122.109 163.452 130.097 152.793 139.907 143.932C141.468 142.525 139.142 140.231 137.581 141.638V141.681Z" fill="#151718"/>
<path d="M113.591 175.332C114.535 176.9 115.813 178.245 117.336 179.272C117.718 179.486 118.168 179.544 118.592 179.434C119.003 179.316 119.353 179.05 119.575 178.687C119.687 178.5 119.76 178.292 119.788 178.076C119.816 177.86 119.799 177.641 119.739 177.432C119.61 177.033 119.343 176.691 118.985 176.469L118.483 176.101L118.832 176.36C118.12 175.812 117.481 175.176 116.932 174.466L117.184 174.802C116.911 174.456 116.659 174.094 116.43 173.719C116.209 173.357 115.858 173.09 115.447 172.972C115.022 172.866 114.571 172.928 114.192 173.146C113.822 173.348 113.547 173.686 113.427 174.087C113.318 174.508 113.377 174.953 113.591 175.332Z" fill="#151718"/>
<path d="M119.542 179.218C122.578 176.865 125.204 174.035 127.317 170.84C127.434 170.656 127.513 170.45 127.549 170.235C127.584 170.019 127.576 169.799 127.524 169.587C127.471 169.375 127.377 169.176 127.245 169.001C127.113 168.826 126.948 168.679 126.757 168.57C126.567 168.46 126.357 168.389 126.138 168.362C125.92 168.334 125.698 168.351 125.487 168.41C125.275 168.469 125.077 168.57 124.906 168.707C124.734 168.844 124.592 169.013 124.489 169.206C124.226 169.595 123.964 169.974 123.691 170.353C123.56 170.526 123.44 170.699 123.309 170.862L123.102 171.143C122.523 171.858 121.944 172.55 121.311 173.221C120.062 174.553 118.707 175.784 117.26 176.901C116.956 177.207 116.785 177.619 116.785 178.049C116.785 178.478 116.956 178.89 117.26 179.196C117.577 179.486 117.992 179.647 118.423 179.647C118.854 179.647 119.269 179.486 119.586 179.196L119.542 179.218Z" fill="#151718"/>
<path d="M124.598 171.565L127.633 173.005C128.596 173.558 129.618 174.005 130.68 174.336C131.146 174.458 131.635 174.468 132.107 174.367C132.579 174.266 133.019 174.057 133.394 173.755C133.768 173.453 134.066 173.069 134.262 172.632C134.458 172.195 134.548 171.718 134.523 171.241C134.486 170.385 134.193 169.561 133.683 168.87C133.41 168.459 132.209 167.366 132.35 166.825C132.35 166.911 132.35 166.825 132.569 166.749C132.792 166.732 133.016 166.766 133.224 166.846C134.098 167.289 134.937 167.795 135.735 168.362C136.501 168.844 137.399 169.078 138.305 169.032C139.211 168.985 140.08 168.66 140.791 168.102C142.211 166.814 142.003 164.703 141.206 163.144C140.665 162.431 140.225 161.648 139.896 160.817C139.836 160.642 139.836 160.452 139.896 160.276C139.896 160.276 139.71 160.276 139.896 160.363C141.184 160.785 142.211 161.77 143.652 161.694C145.89 161.586 146.764 159.389 146.426 157.473C145.938 155.324 144.844 153.356 143.27 151.801C141.828 150.264 139.514 152.57 140.955 154.096C142.068 155.191 142.854 156.569 143.226 158.079C143.303 158.501 143.15 158.479 143.488 158.458C143.161 158.458 142.538 158.014 142.189 157.83C141.624 157.445 140.97 157.209 140.288 157.145C139.606 157.081 138.918 157.19 138.291 157.462C137.62 157.887 137.103 158.512 136.816 159.248C136.53 159.984 136.488 160.792 136.696 161.553C136.907 162.302 137.239 163.011 137.679 163.653C137.996 164.14 138.673 164.909 138.575 165.547C138.575 165.807 138.411 165.85 137.974 165.775C137.286 165.571 136.649 165.224 136.107 164.757C135.479 164.256 134.747 163.9 133.963 163.713C133.18 163.525 132.364 163.513 131.575 163.675C130.799 163.869 130.121 164.339 129.671 164.995C129.22 165.652 129.027 166.449 129.129 167.236C129.278 168.165 129.678 169.036 130.287 169.758C130.556 170.077 130.804 170.413 131.029 170.764C130.975 170.667 131.28 171.349 131.259 171.338C131.237 171.327 131.575 171.338 131.488 171.187C131.297 171.103 131.1 171.035 130.898 170.981C130.407 170.775 129.937 170.515 129.468 170.288L126.192 168.751C124.303 167.842 122.643 170.635 124.543 171.555L124.598 171.565Z" fill="#151718"/>
<path d="M143.215 154.312L148.533 148.381C148.694 148.232 148.823 148.053 148.912 147.854C149.002 147.655 149.05 147.44 149.054 147.222C149.058 147.004 149.017 146.787 148.935 146.585C148.853 146.383 148.73 146.199 148.575 146.045C148.419 145.891 148.234 145.769 148.03 145.688C147.826 145.606 147.607 145.566 147.387 145.57C147.168 145.574 146.951 145.621 146.75 145.71C146.549 145.799 146.368 145.927 146.218 146.086L140.9 152.018C140.739 152.166 140.61 152.346 140.521 152.545C140.431 152.744 140.383 152.959 140.379 153.177C140.375 153.395 140.416 153.611 140.498 153.814C140.581 154.016 140.703 154.199 140.859 154.354C141.014 154.508 141.2 154.629 141.404 154.711C141.607 154.793 141.826 154.833 142.046 154.829C142.266 154.825 142.483 154.777 142.684 154.688C142.884 154.6 143.065 154.472 143.215 154.312Z" fill="#151718"/>
<path d="M146.709 147.721C148.578 149.116 150.732 150.089 153.02 150.57C155.308 151.052 157.675 151.031 159.954 150.509C162.234 149.987 164.37 148.977 166.213 147.549C168.056 146.121 169.561 144.31 170.623 142.244C175.078 133.26 171.223 122.761 162.684 117.804C160.076 116.328 157.197 115.383 154.215 115.027C151.234 114.67 148.21 114.907 145.323 115.726C144.936 115.868 144.618 116.15 144.431 116.513C144.243 116.877 144.2 117.298 144.31 117.692C144.419 118.085 144.674 118.424 145.023 118.641C145.372 118.859 145.791 118.938 146.196 118.865C154.397 116.635 163.722 119.763 167.707 127.524C171.212 134.342 168.614 143.986 161.09 146.855C159.122 147.649 156.982 147.935 154.871 147.685C152.761 147.435 150.749 146.658 149.024 145.426C147.386 144.149 145.05 146.433 146.709 147.721Z" fill="#151718"/>
<path d="M157.727 126.647C158.142 120.715 158.885 112.392 165.371 109.718C166.584 109.152 167.944 108.969 169.266 109.194C170.588 109.418 171.809 110.04 172.763 110.974C173.626 111.91 174.265 113.026 174.631 114.241C174.998 115.455 175.084 116.736 174.881 117.988C174.357 121.408 172.152 124.287 169.596 126.528C168.024 127.913 170.339 130.208 171.911 128.822C174.849 126.403 176.949 123.133 177.917 119.471C178.319 117.784 178.347 116.03 177.998 114.331C177.649 112.632 176.932 111.029 175.897 109.632C174.798 108.197 173.31 107.102 171.607 106.473C169.903 105.844 168.055 105.709 166.277 106.082C164.431 106.502 162.701 107.317 161.205 108.468C159.71 109.62 158.486 111.081 157.618 112.749C155.237 116.992 154.812 121.895 154.451 126.647C154.298 128.736 157.574 128.725 157.727 126.647Z" fill="#151718"/>
<path d="M154.484 121.744C152.016 120.856 149.101 120.163 146.84 121.884C144.58 123.605 144.602 126.733 146.032 129.06C148.544 133.174 154.397 135.717 159.026 133.693C161.636 132.535 163.296 129.212 161.593 126.636C161.366 126.273 161.007 126.01 160.591 125.901C160.174 125.792 159.732 125.846 159.354 126.051C158.981 126.27 158.711 126.626 158.6 127.041C158.49 127.456 158.549 127.898 158.764 128.27C158.764 128.27 158.983 128.671 158.917 128.519C158.917 128.584 159.016 128.974 158.994 128.779C159.02 129.038 158.99 129.3 158.906 129.548C158.775 129.837 158.586 130.098 158.349 130.312C158.112 130.526 157.834 130.689 157.531 130.792C156.054 131.288 154.447 131.246 152.999 130.673C151.531 130.165 150.237 129.257 149.265 128.054C148.83 127.504 148.508 126.875 148.315 126.203C148.218 125.899 148.196 125.576 148.249 125.261C148.288 125.042 148.391 124.839 148.544 124.677C148.749 124.494 148.981 124.345 149.232 124.233C149.578 124.093 149.951 124.03 150.324 124.049C151.482 124.126 152.618 124.408 153.676 124.883C154.096 124.993 154.542 124.935 154.92 124.723C155.298 124.51 155.576 124.16 155.696 123.746C155.801 123.33 155.741 122.89 155.528 122.517C155.314 122.144 154.964 121.867 154.55 121.744H154.484Z" fill="#151718"/>
</svg>
