<svg width="18" height="19" viewBox="0 0 18 19" fill="none" xmlns="http://www.w3.org/2000/svg">
<path d="M8.21624 19C9.34982 19 10.2693 18.0805 10.2693 16.9459H6.16315C6.16315 18.0805 7.08266 19 8.21624 19ZM15.1291 14.1951C14.509 13.5288 13.3488 12.5265 13.3488 9.24324C13.3488 6.74949 11.6003 4.75321 9.24262 4.26345V3.59459C9.24262 3.02748 8.78303 2.56757 8.21624 2.56757C7.64945 2.56757 7.18985 3.02748 7.18985 3.59459V4.26345C4.83218 4.75321 3.08367 6.74949 3.08367 9.24324C3.08367 12.5265 1.92345 13.5288 1.30338 14.1951C1.11082 14.4021 1.02544 14.6496 1.02705 14.8919C1.03058 15.4182 1.44364 15.9189 2.05729 15.9189H14.3752C14.9888 15.9189 15.4022 15.4182 15.4054 14.8919C15.407 14.6496 15.3217 14.4018 15.1291 14.1951Z" fill="#C5C7CD"/>
<circle cx="13.3514" cy="4.62162" r="3.83108" fill="#CE4848" stroke="#151718" stroke-width="1.5"/>
</svg>
