<svg width="141" height="141" viewBox="0 0 141 141" fill="none" xmlns="http://www.w3.org/2000/svg">
<path d="M140.5 70.5C140.5 56.6553 136.395 43.1216 128.703 31.6101C121.012 20.0987 110.079 11.1266 97.2882 5.82846C84.4974 0.530327 70.4227 -0.855903 56.8441 1.84506C43.2654 4.54603 30.7926 11.2129 21.0029 21.0026L35.1451 35.1447C42.1377 28.1521 51.0468 23.39 60.7459 21.4608C70.4449 19.5315 80.4983 20.5217 89.6346 24.3061C98.7709 28.0904 106.58 34.4991 112.074 42.7215C117.568 50.944 120.5 60.611 120.5 70.5H140.5Z" fill="#FF7777" stroke="white"/>
<path d="M21.0026 21.0026C11.2129 30.7922 4.54603 43.265 1.84506 56.8437C-0.855903 70.4224 0.530327 84.4971 5.82846 97.2879C11.1266 110.079 20.0987 121.011 31.6101 128.703C43.1216 136.395 56.6553 140.5 70.5 140.5V120.5C60.611 120.5 50.944 117.568 42.7215 112.074C34.4991 106.579 28.0904 98.7705 24.3061 89.6342C20.5217 80.4979 19.5315 70.4446 21.4608 60.7455C23.39 51.0465 28.1521 42.1373 35.1447 35.1447L21.0026 21.0026Z" fill="#2BEBC8" stroke="white"/>
<path d="M70.5 140.5C89.0652 140.5 106.87 133.125 119.997 119.997C133.125 106.87 140.5 89.0652 140.5 70.5H120.5C120.5 83.7608 115.232 96.4785 105.855 105.855C96.4785 115.232 83.7608 120.5 70.5 120.5V140.5Z" fill="#694BDB" stroke="white"/>
</svg>
